<?xml version="1.0" encoding="iso-8859-1"?>
<!-- Generator: Adobe Illustrator 19.0.0, SVG Export Plug-In . SVG Version: 6.00 Build 0)  -->
<svg version="1.1" id="Capa_1" xmlns="http://www.w3.org/2000/svg" xmlns:xlink="http://www.w3.org/1999/xlink" x="0px" y="0px"
	 viewBox="0 0 480 480" style="enable-background:new 0 0 480 480;" xml:space="preserve">
<g>
	<path style="fill:#E14A3B;" d="M408,296c0-64.872-37.808-124.336-96.464-152H168.464c-51.336,24.208-86.696,72.768-94.728,128H360
		v16H72.288C72.16,290.664,72,293.32,72,296c0,8.168,0.784,16.144,1.92,24h332.16C407.216,312.144,408,304.168,408,296z M112,256H96
		v-16h16V256z M144,256h-16v-16h16V256z M176,256h-16v-16h16V256z M325.656,191.6l-11.312-11.312l11.312-11.312l11.312,11.312
		L325.656,191.6z M376.8,296.168c-0.744-35.2-14.896-68.32-39.832-93.264l11.312-11.312c27.872,27.872,43.68,64.888,44.52,104.232
		L376.8,296.168z"/>
	<path style="fill:#E14A3B;" d="M240,464c78.832,0,144.968-54.648,162.984-128H77.008C95.032,409.352,161.168,464,240,464z
		 M322.344,365.656l11.312-11.312l6.344,6.344l6.344-6.344l11.312,11.312L351.312,372l6.344,6.344l-11.312,11.312L340,383.312
		l-6.344,6.344l-11.312-11.312l6.344-6.344L322.344,365.656z M258.344,365.656l11.312-11.312l6.344,6.344l6.344-6.344l11.312,11.312
		L287.312,372l6.344,6.344l-11.312,11.312L276,383.312l-6.344,6.344l-11.312-11.312l6.344-6.344L258.344,365.656z M186.344,365.656
		l11.312-11.312l6.344,6.344l6.344-6.344l11.312,11.312L215.312,372l6.344,6.344l-11.312,11.312L204,383.312l-6.344,6.344
		l-11.312-11.312l6.344-6.344L186.344,365.656z M122.344,365.656l11.312-11.312l6.344,6.344l6.344-6.344l11.312,11.312L151.312,372
		l6.344,6.344l-11.312,11.312L140,383.312l-6.344,6.344l-11.312-11.312l6.344-6.344L122.344,365.656z"/>
</g>
<polygon style="fill:#BFD7C2;" points="312,80 272,80 208,80 168,80 168,128 312,128 "/>
<g>
	<path style="fill:#593F27;" d="M328,134.456V72c0-4.416-3.584-8-8-8h-40V40c0-22.056-17.944-40-40-40s-40,17.944-40,40v24h-40
		c-4.416,0-8,3.584-8,8v62.456C93.296,166.496,56,228.576,56,296c0,101.456,82.544,184,184,184s184-82.544,184-184
		C424,228.576,386.704,166.496,328,134.456z M216,40c0-13.232,10.768-24,24-24s24,10.768,24,24v24h-48V40z M168,80h40h64h40v48H168
		V80z M168.464,144h143.072C370.192,171.664,408,231.128,408,296c0,8.168-0.784,16.144-1.92,24H73.912
		C72.784,312.144,72,304.168,72,296c0-2.68,0.16-5.336,0.288-8H360v-16H73.736C81.768,216.768,117.128,168.208,168.464,144z
		 M240,464c-78.832,0-144.968-54.648-162.984-128h325.976C384.968,409.352,318.832,464,240,464z"/>
	<path style="fill:#593F27;" d="M392.8,295.832c-0.84-39.336-16.648-76.352-44.52-104.232l-11.312,11.312
		c24.936,24.944,39.088,58.064,39.832,93.264L392.8,295.832z"/>
	
		<rect x="317.66" y="172.33" transform="matrix(-0.7071 0.7071 -0.7071 -0.7071 683.4495 77.5665)" style="fill:#593F27;" width="16" height="16"/>
	<rect x="160" y="240" style="fill:#593F27;" width="16" height="16"/>
	<rect x="128" y="240" style="fill:#593F27;" width="16" height="16"/>
	<rect x="96" y="240" style="fill:#593F27;" width="16" height="16"/>
	<polygon style="fill:#593F27;" points="146.344,354.344 140,360.688 133.656,354.344 122.344,365.656 128.688,372 122.344,378.344 
		133.656,389.656 140,383.312 146.344,389.656 157.656,378.344 151.312,372 157.656,365.656 	"/>
	<polygon style="fill:#593F27;" points="210.344,354.344 204,360.688 197.656,354.344 186.344,365.656 192.688,372 186.344,378.344 
		197.656,389.656 204,383.312 210.344,389.656 221.656,378.344 215.312,372 221.656,365.656 	"/>
	<polygon style="fill:#593F27;" points="282.344,354.344 276,360.688 269.656,354.344 258.344,365.656 264.688,372 258.344,378.344 
		269.656,389.656 276,383.312 282.344,389.656 293.656,378.344 287.312,372 293.656,365.656 	"/>
	<polygon style="fill:#593F27;" points="346.344,354.344 340,360.688 333.656,354.344 322.344,365.656 328.688,372 322.344,378.344 
		333.656,389.656 340,383.312 346.344,389.656 357.656,378.344 351.312,372 357.656,365.656 	"/>
</g>
<g>
</g>
<g>
</g>
<g>
</g>
<g>
</g>
<g>
</g>
<g>
</g>
<g>
</g>
<g>
</g>
<g>
</g>
<g>
</g>
<g>
</g>
<g>
</g>
<g>
</g>
<g>
</g>
<g>
</g>
</svg>
